<?xml version="1.0" encoding="UTF-8" standalone="no"?>
<!DOCTYPE svg PUBLIC "-//W3C//DTD SVG 1.1//EN"
 "http://www.w3.org/Graphics/SVG/1.1/DTD/svg11.dtd">
<!-- Generated by graphviz version 2.47.3 (20210619.1520)
 -->
<!-- Title: dependencies Pages: 1 -->
<svg width="4469pt" height="247pt"
 viewBox="0.00 0.00 4469.00 246.80" xmlns="http://www.w3.org/2000/svg" xmlns:xlink="http://www.w3.org/1999/xlink">
<g id="graph0" class="graph" transform="scale(1 1) rotate(0) translate(4 242.8)">
<title>dependencies</title>
<polygon fill="white" stroke="transparent" points="-4,4 -4,-242.8 4465,-242.8 4465,4 -4,4"/>
<text text-anchor="middle" x="2230.5" y="-8.2" font-family="sans-serif" font-size="14.00">dependencies</text>
<g id="clust1" class="cluster">
<title>cluster_AppModule</title>
<polygon fill="none" stroke="black" stroke-dasharray="1,5" points="8,-32.8 8,-230.8 4453,-230.8 4453,-32.8 8,-32.8"/>
</g>
<g id="clust28" class="cluster">
<title>cluster_AppModule_bootstrap</title>
<polygon fill="none" stroke="black" points="1931,-170.8 1931,-222.8 2055,-222.8 2055,-170.8 1931,-170.8"/>
</g>
<g id="clust26" class="cluster">
<title>cluster_AppModule_imports</title>
<polygon fill="none" stroke="black" points="3669,-40.8 3669,-92.8 4445,-92.8 4445,-40.8 3669,-40.8"/>
</g>
<g id="clust2" class="cluster">
<title>cluster_AppModule_declarations</title>
<polygon fill="none" stroke="black" points="16,-40.8 16,-92.8 3661,-92.8 3661,-40.8 16,-40.8"/>
</g>
<!-- AddMaterialComponent -->
<g id="node1" class="node">
<title>AddMaterialComponent</title>
<polygon fill="#ffffb3" stroke="black" points="3653.36,-84.8 3500.64,-84.8 3500.64,-48.8 3653.36,-48.8 3653.36,-84.8"/>
<text text-anchor="middle" x="3577" y="-62.6" font-family="Times,serif" font-size="14.00">AddMaterialComponent</text>
</g>
<!-- AppModule -->
<g id="node24" class="node">
<title>AppModule</title>
<polygon fill="#8dd3c7" stroke="black" points="2034.66,-149.8 2031.66,-153.8 2010.66,-153.8 2007.66,-149.8 1951.34,-149.8 1951.34,-113.8 2034.66,-113.8 2034.66,-149.8"/>
<text text-anchor="middle" x="1993" y="-127.6" font-family="Times,serif" font-size="14.00">AppModule</text>
</g>
<!-- AddMaterialComponent&#45;&gt;AppModule -->
<g id="edge1" class="edge">
<title>AddMaterialComponent&#45;&gt;AppModule</title>
<path fill="none" stroke="black" d="M3577,-84.97C3577,-106.3 3577,-138.8 3577,-138.8 3577,-138.8 2044.96,-138.8 2044.96,-138.8"/>
<polygon fill="black" stroke="black" points="2044.96,-135.3 2034.96,-138.8 2044.96,-142.3 2044.96,-135.3"/>
</g>
<!-- AddProjectComponent -->
<g id="node2" class="node">
<title>AddProjectComponent</title>
<polygon fill="#ffffb3" stroke="black" points="3482.59,-84.8 3337.41,-84.8 3337.41,-48.8 3482.59,-48.8 3482.59,-84.8"/>
<text text-anchor="middle" x="3410" y="-62.6" font-family="Times,serif" font-size="14.00">AddProjectComponent</text>
</g>
<!-- AddProjectComponent&#45;&gt;AppModule -->
<g id="edge2" class="edge">
<title>AddProjectComponent&#45;&gt;AppModule</title>
<path fill="none" stroke="black" d="M3410,-84.83C3410,-105.57 3410,-136.8 3410,-136.8 3410,-136.8 2045.02,-136.8 2045.02,-136.8"/>
<polygon fill="black" stroke="black" points="2045.02,-133.3 2035.02,-136.8 2045.02,-140.3 2045.02,-133.3"/>
</g>
<!-- AddRaportComponent -->
<g id="node3" class="node">
<title>AddRaportComponent</title>
<polygon fill="#ffffb3" stroke="black" points="3319.54,-84.8 3176.46,-84.8 3176.46,-48.8 3319.54,-48.8 3319.54,-84.8"/>
<text text-anchor="middle" x="3248" y="-62.6" font-family="Times,serif" font-size="14.00">AddRaportComponent</text>
</g>
<!-- AddRaportComponent&#45;&gt;AppModule -->
<g id="edge3" class="edge">
<title>AddRaportComponent&#45;&gt;AppModule</title>
<path fill="none" stroke="black" d="M3248,-85.11C3248,-104.95 3248,-133.8 3248,-133.8 3248,-133.8 2044.76,-133.8 2044.76,-133.8"/>
<polygon fill="black" stroke="black" points="2044.76,-130.3 2034.76,-133.8 2044.76,-137.3 2044.76,-130.3"/>
</g>
<!-- AddRequestComponent -->
<g id="node4" class="node">
<title>AddRequestComponent</title>
<polygon fill="#ffffb3" stroke="black" points="3158.04,-84.8 3007.96,-84.8 3007.96,-48.8 3158.04,-48.8 3158.04,-84.8"/>
<text text-anchor="middle" x="3083" y="-62.6" font-family="Times,serif" font-size="14.00">AddRequestComponent</text>
</g>
<!-- AddRequestComponent&#45;&gt;AppModule -->
<g id="edge4" class="edge">
<title>AddRequestComponent&#45;&gt;AppModule</title>
<path fill="none" stroke="black" d="M3083,-84.97C3083,-103.89 3083,-130.8 3083,-130.8 3083,-130.8 2044.73,-130.8 2044.73,-130.8"/>
<polygon fill="black" stroke="black" points="2044.73,-127.3 2034.73,-130.8 2044.73,-134.3 2044.73,-127.3"/>
</g>
<!-- AddRequestRaportComponent -->
<g id="node5" class="node">
<title>AddRequestRaportComponent</title>
<polygon fill="#ffffb3" stroke="black" points="2989.14,-84.8 2800.86,-84.8 2800.86,-48.8 2989.14,-48.8 2989.14,-84.8"/>
<text text-anchor="middle" x="2895" y="-62.6" font-family="Times,serif" font-size="14.00">AddRequestRaportComponent</text>
</g>
<!-- AddRequestRaportComponent&#45;&gt;AppModule -->
<g id="edge5" class="edge">
<title>AddRequestRaportComponent&#45;&gt;AppModule</title>
<path fill="none" stroke="black" d="M2895,-85.1C2895,-103.07 2895,-127.8 2895,-127.8 2895,-127.8 2044.7,-127.8 2044.7,-127.8"/>
<polygon fill="black" stroke="black" points="2044.7,-124.3 2034.7,-127.8 2044.7,-131.3 2044.7,-124.3"/>
</g>
<!-- AppComponent -->
<g id="node6" class="node">
<title>AppComponent</title>
<polygon fill="#ffffb3" stroke="black" points="2782.94,-84.8 2677.06,-84.8 2677.06,-48.8 2782.94,-48.8 2782.94,-84.8"/>
<text text-anchor="middle" x="2730" y="-62.6" font-family="Times,serif" font-size="14.00">AppComponent</text>
</g>
<!-- AppComponent&#45;&gt;AppModule -->
<g id="edge6" class="edge">
<title>AppComponent&#45;&gt;AppModule</title>
<path fill="none" stroke="black" d="M2730,-84.82C2730,-102.17 2730,-125.8 2730,-125.8 2730,-125.8 2044.74,-125.8 2044.74,-125.8"/>
<polygon fill="black" stroke="black" points="2044.74,-122.3 2034.74,-125.8 2044.74,-129.3 2044.74,-122.3"/>
</g>
<!-- ButtonComponent -->
<g id="node7" class="node">
<title>ButtonComponent</title>
<polygon fill="#ffffb3" stroke="black" points="2659.95,-84.8 2540.05,-84.8 2540.05,-48.8 2659.95,-48.8 2659.95,-84.8"/>
<text text-anchor="middle" x="2600" y="-62.6" font-family="Times,serif" font-size="14.00">ButtonComponent</text>
</g>
<!-- ButtonComponent&#45;&gt;AppModule -->
<g id="edge7" class="edge">
<title>ButtonComponent&#45;&gt;AppModule</title>
<path fill="none" stroke="black" d="M2600,-84.83C2600,-101.2 2600,-122.8 2600,-122.8 2600,-122.8 2044.72,-122.8 2044.72,-122.8"/>
<polygon fill="black" stroke="black" points="2044.72,-119.3 2034.72,-122.8 2044.72,-126.3 2044.72,-119.3"/>
</g>
<!-- CalculatorCctvComponent -->
<g id="node8" class="node">
<title>CalculatorCctvComponent</title>
<polygon fill="#ffffb3" stroke="black" points="2522.09,-84.8 2355.91,-84.8 2355.91,-48.8 2522.09,-48.8 2522.09,-84.8"/>
<text text-anchor="middle" x="2439" y="-62.6" font-family="Times,serif" font-size="14.00">CalculatorCctvComponent</text>
</g>
<!-- CalculatorCctvComponent&#45;&gt;AppModule -->
<g id="edge8" class="edge">
<title>CalculatorCctvComponent&#45;&gt;AppModule</title>
<path fill="none" stroke="black" d="M2439,-85.04C2439,-100.37 2439,-119.8 2439,-119.8 2439,-119.8 2044.96,-119.8 2044.96,-119.8"/>
<polygon fill="black" stroke="black" points="2044.96,-116.3 2034.96,-119.8 2044.96,-123.3 2044.96,-116.3"/>
</g>
<!-- DeleteMaterialComponent -->
<g id="node9" class="node">
<title>DeleteMaterialComponent</title>
<polygon fill="#ffffb3" stroke="black" points="2337.79,-84.8 2172.21,-84.8 2172.21,-48.8 2337.79,-48.8 2337.79,-84.8"/>
<text text-anchor="middle" x="2255" y="-62.6" font-family="Times,serif" font-size="14.00">DeleteMaterialComponent</text>
</g>
<!-- DeleteMaterialComponent&#45;&gt;AppModule -->
<g id="edge9" class="edge">
<title>DeleteMaterialComponent&#45;&gt;AppModule</title>
<path fill="none" stroke="black" d="M2255,-84.85C2255,-99.17 2255,-116.8 2255,-116.8 2255,-116.8 2044.8,-116.8 2044.8,-116.8"/>
<polygon fill="black" stroke="black" points="2044.8,-113.3 2034.8,-116.8 2044.8,-120.3 2044.8,-113.3"/>
</g>
<!-- DeleteRequestComponent -->
<g id="node10" class="node">
<title>DeleteRequestComponent</title>
<polygon fill="#ffffb3" stroke="black" points="2154.47,-84.8 1991.53,-84.8 1991.53,-48.8 2154.47,-48.8 2154.47,-84.8"/>
<text text-anchor="middle" x="2073" y="-62.6" font-family="Times,serif" font-size="14.00">DeleteRequestComponent</text>
</g>
<!-- DeleteRequestComponent&#45;&gt;AppModule -->
<g id="edge10" class="edge">
<title>DeleteRequestComponent&#45;&gt;AppModule</title>
<path fill="none" stroke="black" d="M2013.17,-84.91C2013.17,-84.91 2013.17,-103.79 2013.17,-103.79"/>
<polygon fill="black" stroke="black" points="2009.67,-103.79 2013.17,-113.79 2016.67,-103.79 2009.67,-103.79"/>
</g>
<!-- HeaderComponent -->
<g id="node11" class="node">
<title>HeaderComponent</title>
<polygon fill="#ffffb3" stroke="black" points="1973.74,-84.8 1852.26,-84.8 1852.26,-48.8 1973.74,-48.8 1973.74,-84.8"/>
<text text-anchor="middle" x="1913" y="-62.6" font-family="Times,serif" font-size="14.00">HeaderComponent</text>
</g>
<!-- HeaderComponent&#45;&gt;AppModule -->
<g id="edge11" class="edge">
<title>HeaderComponent&#45;&gt;AppModule</title>
<path fill="none" stroke="black" d="M1962.52,-84.91C1962.52,-84.91 1962.52,-103.79 1962.52,-103.79"/>
<polygon fill="black" stroke="black" points="1959.02,-103.79 1962.52,-113.79 1966.02,-103.79 1959.02,-103.79"/>
</g>
<!-- HomeComponent -->
<g id="node12" class="node">
<title>HomeComponent</title>
<polygon fill="#ffffb3" stroke="black" points="1833.55,-84.8 1718.45,-84.8 1718.45,-48.8 1833.55,-48.8 1833.55,-84.8"/>
<text text-anchor="middle" x="1776" y="-62.6" font-family="Times,serif" font-size="14.00">HomeComponent</text>
</g>
<!-- HomeComponent&#45;&gt;AppModule -->
<g id="edge12" class="edge">
<title>HomeComponent&#45;&gt;AppModule</title>
<path fill="none" stroke="black" d="M1776,-84.85C1776,-99.17 1776,-116.8 1776,-116.8 1776,-116.8 1941.16,-116.8 1941.16,-116.8"/>
<polygon fill="black" stroke="black" points="1941.16,-120.3 1951.16,-116.8 1941.16,-113.3 1941.16,-120.3"/>
</g>
<!-- LoginComponent -->
<g id="node13" class="node">
<title>LoginComponent</title>
<polygon fill="#ffffb3" stroke="black" points="1700.28,-84.8 1585.72,-84.8 1585.72,-48.8 1700.28,-48.8 1700.28,-84.8"/>
<text text-anchor="middle" x="1643" y="-62.6" font-family="Times,serif" font-size="14.00">LoginComponent</text>
</g>
<!-- LoginComponent&#45;&gt;AppModule -->
<g id="edge13" class="edge">
<title>LoginComponent&#45;&gt;AppModule</title>
<path fill="none" stroke="black" d="M1643,-85.04C1643,-100.37 1643,-119.8 1643,-119.8 1643,-119.8 1941.13,-119.8 1941.13,-119.8"/>
<polygon fill="black" stroke="black" points="1941.13,-123.3 1951.13,-119.8 1941.13,-116.3 1941.13,-123.3"/>
</g>
<!-- MaterialSearchPipe -->
<g id="node14" class="node">
<title>MaterialSearchPipe</title>
<polygon fill="#ffffb3" stroke="black" points="1567.4,-84.8 1440.6,-84.8 1440.6,-48.8 1567.4,-48.8 1567.4,-84.8"/>
<text text-anchor="middle" x="1504" y="-62.6" font-family="Times,serif" font-size="14.00">MaterialSearchPipe</text>
</g>
<!-- MaterialSearchPipe&#45;&gt;AppModule -->
<g id="edge14" class="edge">
<title>MaterialSearchPipe&#45;&gt;AppModule</title>
<path fill="none" stroke="black" d="M1504,-84.83C1504,-101.2 1504,-122.8 1504,-122.8 1504,-122.8 1941.31,-122.8 1941.31,-122.8"/>
<polygon fill="black" stroke="black" points="1941.31,-126.3 1951.31,-122.8 1941.31,-119.3 1941.31,-126.3"/>
</g>
<!-- MaterialsComponent -->
<g id="node15" class="node">
<title>MaterialsComponent</title>
<polygon fill="#ffffb3" stroke="black" points="1423.2,-84.8 1288.8,-84.8 1288.8,-48.8 1423.2,-48.8 1423.2,-84.8"/>
<text text-anchor="middle" x="1356" y="-62.6" font-family="Times,serif" font-size="14.00">MaterialsComponent</text>
</g>
<!-- MaterialsComponent&#45;&gt;AppModule -->
<g id="edge15" class="edge">
<title>MaterialsComponent&#45;&gt;AppModule</title>
<path fill="none" stroke="black" d="M1356,-84.82C1356,-102.17 1356,-125.8 1356,-125.8 1356,-125.8 1941.2,-125.8 1941.2,-125.8"/>
<polygon fill="black" stroke="black" points="1941.2,-129.3 1951.2,-125.8 1941.2,-122.3 1941.2,-129.3"/>
</g>
<!-- ProjectDetailComponent -->
<g id="node16" class="node">
<title>ProjectDetailComponent</title>
<polygon fill="#ffffb3" stroke="black" points="1270.69,-84.8 1115.31,-84.8 1115.31,-48.8 1270.69,-48.8 1270.69,-84.8"/>
<text text-anchor="middle" x="1193" y="-62.6" font-family="Times,serif" font-size="14.00">ProjectDetailComponent</text>
</g>
<!-- ProjectDetailComponent&#45;&gt;AppModule -->
<g id="edge16" class="edge">
<title>ProjectDetailComponent&#45;&gt;AppModule</title>
<path fill="none" stroke="black" d="M1193,-85.1C1193,-103.07 1193,-127.8 1193,-127.8 1193,-127.8 1941.11,-127.8 1941.11,-127.8"/>
<polygon fill="black" stroke="black" points="1941.11,-131.3 1951.11,-127.8 1941.11,-124.3 1941.11,-131.3"/>
</g>
<!-- ProjectSearchPipe -->
<g id="node17" class="node">
<title>ProjectSearchPipe</title>
<polygon fill="#ffffb3" stroke="black" points="1097.13,-84.8 978.87,-84.8 978.87,-48.8 1097.13,-48.8 1097.13,-84.8"/>
<text text-anchor="middle" x="1038" y="-62.6" font-family="Times,serif" font-size="14.00">ProjectSearchPipe</text>
</g>
<!-- ProjectSearchPipe&#45;&gt;AppModule -->
<g id="edge17" class="edge">
<title>ProjectSearchPipe&#45;&gt;AppModule</title>
<path fill="none" stroke="black" d="M1038,-84.97C1038,-103.89 1038,-130.8 1038,-130.8 1038,-130.8 1941.04,-130.8 1941.04,-130.8"/>
<polygon fill="black" stroke="black" points="1941.04,-134.3 1951.04,-130.8 1941.04,-127.3 1941.04,-134.3"/>
</g>
<!-- ProjectsComponent -->
<g id="node18" class="node">
<title>ProjectsComponent</title>
<polygon fill="#ffffb3" stroke="black" points="960.43,-84.8 833.57,-84.8 833.57,-48.8 960.43,-48.8 960.43,-84.8"/>
<text text-anchor="middle" x="897" y="-62.6" font-family="Times,serif" font-size="14.00">ProjectsComponent</text>
</g>
<!-- ProjectsComponent&#45;&gt;AppModule -->
<g id="edge18" class="edge">
<title>ProjectsComponent&#45;&gt;AppModule</title>
<path fill="none" stroke="black" d="M897,-85.11C897,-104.95 897,-133.8 897,-133.8 897,-133.8 1941.04,-133.8 1941.04,-133.8"/>
<polygon fill="black" stroke="black" points="1941.04,-137.3 1951.04,-133.8 1941.04,-130.3 1941.04,-137.3"/>
</g>
<!-- RaportBillingComponent -->
<g id="node19" class="node">
<title>RaportBillingComponent</title>
<polygon fill="#ffffb3" stroke="black" points="816.33,-84.8 657.67,-84.8 657.67,-48.8 816.33,-48.8 816.33,-84.8"/>
<text text-anchor="middle" x="737" y="-62.6" font-family="Times,serif" font-size="14.00">RaportBillingComponent</text>
</g>
<!-- RaportBillingComponent&#45;&gt;AppModule -->
<g id="edge19" class="edge">
<title>RaportBillingComponent&#45;&gt;AppModule</title>
<path fill="none" stroke="black" d="M737,-84.83C737,-105.57 737,-136.8 737,-136.8 737,-136.8 1941.21,-136.8 1941.21,-136.8"/>
<polygon fill="black" stroke="black" points="1941.21,-140.3 1951.21,-136.8 1941.21,-133.3 1941.21,-140.3"/>
</g>
<!-- RaportDetailComponent -->
<g id="node20" class="node">
<title>RaportDetailComponent</title>
<polygon fill="#ffffb3" stroke="black" points="639.64,-84.8 486.36,-84.8 486.36,-48.8 639.64,-48.8 639.64,-84.8"/>
<text text-anchor="middle" x="563" y="-62.6" font-family="Times,serif" font-size="14.00">RaportDetailComponent</text>
</g>
<!-- RaportDetailComponent&#45;&gt;AppModule -->
<g id="edge20" class="edge">
<title>RaportDetailComponent&#45;&gt;AppModule</title>
<path fill="none" stroke="black" d="M563,-84.97C563,-106.3 563,-138.8 563,-138.8 563,-138.8 1940.98,-138.8 1940.98,-138.8"/>
<polygon fill="black" stroke="black" points="1940.98,-142.3 1950.98,-138.8 1940.98,-135.3 1940.98,-142.3"/>
</g>
<!-- RaportsComponent -->
<g id="node21" class="node">
<title>RaportsComponent</title>
<polygon fill="#ffffb3" stroke="black" points="468.38,-84.8 343.62,-84.8 343.62,-48.8 468.38,-48.8 468.38,-84.8"/>
<text text-anchor="middle" x="406" y="-62.6" font-family="Times,serif" font-size="14.00">RaportsComponent</text>
</g>
<!-- RaportsComponent&#45;&gt;AppModule -->
<g id="edge21" class="edge">
<title>RaportsComponent&#45;&gt;AppModule</title>
<path fill="none" stroke="black" d="M406,-84.96C406,-107.15 406,-141.8 406,-141.8 406,-141.8 1940.96,-141.8 1940.96,-141.8"/>
<polygon fill="black" stroke="black" points="1940.96,-145.3 1950.96,-141.8 1940.96,-138.3 1940.96,-145.3"/>
</g>
<!-- RequestItemComponent -->
<g id="node22" class="node">
<title>RequestItemComponent</title>
<polygon fill="#ffffb3" stroke="black" points="326.09,-84.8 173.91,-84.8 173.91,-48.8 326.09,-48.8 326.09,-84.8"/>
<text text-anchor="middle" x="250" y="-62.6" font-family="Times,serif" font-size="14.00">RequestItemComponent</text>
</g>
<!-- RequestItemComponent&#45;&gt;AppModule -->
<g id="edge22" class="edge">
<title>RequestItemComponent&#45;&gt;AppModule</title>
<path fill="none" stroke="black" d="M250,-84.89C250,-107.93 250,-144.8 250,-144.8 250,-144.8 1941.21,-144.8 1941.21,-144.8"/>
<polygon fill="black" stroke="black" points="1941.21,-148.3 1951.21,-144.8 1941.21,-141.3 1941.21,-148.3"/>
</g>
<!-- RequestsComponent -->
<g id="node23" class="node">
<title>RequestsComponent</title>
<polygon fill="#ffffb3" stroke="black" points="155.88,-84.8 24.12,-84.8 24.12,-48.8 155.88,-48.8 155.88,-84.8"/>
<text text-anchor="middle" x="90" y="-62.6" font-family="Times,serif" font-size="14.00">RequestsComponent</text>
</g>
<!-- RequestsComponent&#45;&gt;AppModule -->
<g id="edge23" class="edge">
<title>RequestsComponent&#45;&gt;AppModule</title>
<path fill="none" stroke="black" d="M90,-85.18C90,-109.08 90,-147.8 90,-147.8 90,-147.8 1941.04,-147.8 1941.04,-147.8"/>
<polygon fill="black" stroke="black" points="1941.04,-151.3 1951.04,-147.8 1941.04,-144.3 1941.04,-151.3"/>
</g>
<!-- AppComponent  -->
<g id="node28" class="node">
<title>AppComponent </title>
<polygon fill="#80b1d3" stroke="black" points="2047.44,-214.8 1938.56,-214.8 1938.56,-178.8 2047.44,-178.8 2047.44,-214.8"/>
<text text-anchor="middle" x="1993" y="-192.6" font-family="Times,serif" font-size="14.00">AppComponent </text>
</g>
<!-- AppModule&#45;&gt;AppComponent  -->
<g id="edge27" class="edge">
<title>AppModule&#45;&gt;AppComponent </title>
<path fill="none" stroke="black" stroke-dasharray="1,5" d="M1993,-149.91C1993,-149.91 1993,-168.79 1993,-168.79"/>
<polygon fill="black" stroke="black" points="1989.5,-168.79 1993,-178.79 1996.5,-168.79 1989.5,-168.79"/>
</g>
<!-- provideAuth(() =&gt; getAuth()) -->
<g id="node25" class="node">
<title>provideAuth(() =&gt; getAuth())</title>
<polygon fill="#8dd3c7" stroke="black" points="4437.12,-84.8 4434.12,-88.8 4413.12,-88.8 4410.12,-84.8 4254.88,-84.8 4254.88,-48.8 4437.12,-48.8 4437.12,-84.8"/>
<text text-anchor="middle" x="4346" y="-62.6" font-family="Times,serif" font-size="14.00">provideAuth(() =&gt; getAuth())</text>
</g>
<!-- provideAuth(() =&gt; getAuth())&#45;&gt;AppModule -->
<g id="edge24" class="edge">
<title>provideAuth(() =&gt; getAuth())&#45;&gt;AppModule</title>
<path fill="none" stroke="black" d="M4346,-85.18C4346,-109.08 4346,-147.8 4346,-147.8 4346,-147.8 2044.84,-147.8 2044.84,-147.8"/>
<polygon fill="black" stroke="black" points="2044.84,-144.3 2034.84,-147.8 2044.84,-151.3 2044.84,-144.3"/>
</g>
<!-- provideFirebaseApp(() =&gt; initializeApp(environment -->
<g id="node26" class="node">
<title>provideFirebaseApp(() =&gt; initializeApp(environment</title>
<polygon fill="#8dd3c7" stroke="black" points="4236.58,-84.8 4233.58,-88.8 4212.58,-88.8 4209.58,-84.8 3921.42,-84.8 3921.42,-48.8 4236.58,-48.8 4236.58,-84.8"/>
<text text-anchor="middle" x="4079" y="-62.6" font-family="Times,serif" font-size="14.00">provideFirebaseApp(() =&gt; initializeApp(environment</text>
</g>
<!-- provideFirebaseApp(() =&gt; initializeApp(environment&#45;&gt;AppModule -->
<g id="edge25" class="edge">
<title>provideFirebaseApp(() =&gt; initializeApp(environment&#45;&gt;AppModule</title>
<path fill="none" stroke="black" d="M4079,-84.89C4079,-107.93 4079,-144.8 4079,-144.8 4079,-144.8 2044.67,-144.8 2044.67,-144.8"/>
<polygon fill="black" stroke="black" points="2044.67,-141.3 2034.67,-144.8 2044.67,-148.3 2044.67,-141.3"/>
</g>
<!-- provideFirestore(() =&gt; getFirestore()) -->
<g id="node27" class="node">
<title>provideFirestore(() =&gt; getFirestore())</title>
<polygon fill="#8dd3c7" stroke="black" points="3903.14,-84.8 3900.14,-88.8 3879.14,-88.8 3876.14,-84.8 3676.86,-84.8 3676.86,-48.8 3903.14,-48.8 3903.14,-84.8"/>
<text text-anchor="middle" x="3790" y="-62.6" font-family="Times,serif" font-size="14.00">provideFirestore(() =&gt; getFirestore())</text>
</g>
<!-- provideFirestore(() =&gt; getFirestore())&#45;&gt;AppModule -->
<g id="edge26" class="edge">
<title>provideFirestore(() =&gt; getFirestore())&#45;&gt;AppModule</title>
<path fill="none" stroke="black" d="M3790,-84.96C3790,-107.15 3790,-141.8 3790,-141.8 3790,-141.8 2044.77,-141.8 2044.77,-141.8"/>
<polygon fill="black" stroke="black" points="2044.77,-138.3 2034.77,-141.8 2044.77,-145.3 2044.77,-138.3"/>
</g>
</g>
</svg>
