<?xml version="1.0" encoding="UTF-8" standalone="no"?>
<!DOCTYPE svg PUBLIC "-//W3C//DTD SVG 1.1//EN"
 "http://www.w3.org/Graphics/SVG/1.1/DTD/svg11.dtd">
<!-- Generated by graphviz version 2.47.3 (20210619.1520)
 -->
<!-- Title: dependencies Pages: 1 -->
<svg width="4627pt" height="247pt"
 viewBox="0.00 0.00 4627.00 246.80" xmlns="http://www.w3.org/2000/svg" xmlns:xlink="http://www.w3.org/1999/xlink">
<g id="graph0" class="graph" transform="scale(1 1) rotate(0) translate(4 242.8)">
<title>dependencies</title>
<polygon fill="white" stroke="transparent" points="-4,4 -4,-242.8 4623,-242.8 4623,4 -4,4"/>
<text text-anchor="middle" x="2309.5" y="-8.2" font-family="sans-serif" font-size="14.00">dependencies</text>
<g id="clust1" class="cluster">
<title>cluster_AppModule</title>
<polygon fill="none" stroke="black" stroke-dasharray="1,5" points="8,-32.8 8,-230.8 4611,-230.8 4611,-32.8 8,-32.8"/>
</g>
<g id="clust2" class="cluster">
<title>cluster_AppModule_declarations</title>
<polygon fill="none" stroke="black" points="800,-40.8 800,-92.8 4603,-92.8 4603,-40.8 800,-40.8"/>
</g>
<g id="clust27" class="cluster">
<title>cluster_AppModule_imports</title>
<polygon fill="none" stroke="black" points="16,-40.8 16,-92.8 792,-92.8 792,-40.8 16,-40.8"/>
</g>
<g id="clust29" class="cluster">
<title>cluster_AppModule_bootstrap</title>
<polygon fill="none" stroke="black" points="2384,-170.8 2384,-222.8 2508,-222.8 2508,-170.8 2384,-170.8"/>
</g>
<!-- AddMaterialComponent -->
<g id="node1" class="node">
<title>AddMaterialComponent</title>
<polygon fill="#ffffb3" stroke="black" points="4595.36,-84.8 4442.64,-84.8 4442.64,-48.8 4595.36,-48.8 4595.36,-84.8"/>
<text text-anchor="middle" x="4519" y="-62.6" font-family="Times,serif" font-size="14.00">AddMaterialComponent</text>
</g>
<!-- AppModule -->
<g id="node25" class="node">
<title>AppModule</title>
<polygon fill="#8dd3c7" stroke="black" points="2487.66,-149.8 2484.66,-153.8 2463.66,-153.8 2460.66,-149.8 2404.34,-149.8 2404.34,-113.8 2487.66,-113.8 2487.66,-149.8"/>
<text text-anchor="middle" x="2446" y="-127.6" font-family="Times,serif" font-size="14.00">AppModule</text>
</g>
<!-- AddMaterialComponent&#45;&gt;AppModule -->
<g id="edge1" class="edge">
<title>AddMaterialComponent&#45;&gt;AppModule</title>
<path fill="none" stroke="black" d="M4519,-85.18C4519,-109.08 4519,-147.8 4519,-147.8 4519,-147.8 2497.88,-147.8 2497.88,-147.8"/>
<polygon fill="black" stroke="black" points="2497.88,-144.3 2487.88,-147.8 2497.88,-151.3 2497.88,-144.3"/>
</g>
<!-- AddProjectComponent -->
<g id="node2" class="node">
<title>AddProjectComponent</title>
<polygon fill="#ffffb3" stroke="black" points="4424.59,-84.8 4279.41,-84.8 4279.41,-48.8 4424.59,-48.8 4424.59,-84.8"/>
<text text-anchor="middle" x="4352" y="-62.6" font-family="Times,serif" font-size="14.00">AddProjectComponent</text>
</g>
<!-- AddProjectComponent&#45;&gt;AppModule -->
<g id="edge2" class="edge">
<title>AddProjectComponent&#45;&gt;AppModule</title>
<path fill="none" stroke="black" d="M4352,-84.89C4352,-107.93 4352,-144.8 4352,-144.8 4352,-144.8 2498.03,-144.8 2498.03,-144.8"/>
<polygon fill="black" stroke="black" points="2498.03,-141.3 2488.03,-144.8 2498.03,-148.3 2498.03,-141.3"/>
</g>
<!-- AddRaportComponent -->
<g id="node3" class="node">
<title>AddRaportComponent</title>
<polygon fill="#ffffb3" stroke="black" points="4261.54,-84.8 4118.46,-84.8 4118.46,-48.8 4261.54,-48.8 4261.54,-84.8"/>
<text text-anchor="middle" x="4190" y="-62.6" font-family="Times,serif" font-size="14.00">AddRaportComponent</text>
</g>
<!-- AddRaportComponent&#45;&gt;AppModule -->
<g id="edge3" class="edge">
<title>AddRaportComponent&#45;&gt;AppModule</title>
<path fill="none" stroke="black" d="M4190,-84.81C4190,-107.29 4190,-142.8 4190,-142.8 4190,-142.8 2497.82,-142.8 2497.82,-142.8"/>
<polygon fill="black" stroke="black" points="2497.82,-139.3 2487.82,-142.8 2497.82,-146.3 2497.82,-139.3"/>
</g>
<!-- AddRequestComponent -->
<g id="node4" class="node">
<title>AddRequestComponent</title>
<polygon fill="#ffffb3" stroke="black" points="4100.04,-84.8 3949.96,-84.8 3949.96,-48.8 4100.04,-48.8 4100.04,-84.8"/>
<text text-anchor="middle" x="4025" y="-62.6" font-family="Times,serif" font-size="14.00">AddRequestComponent</text>
</g>
<!-- AddRequestComponent&#45;&gt;AppModule -->
<g id="edge4" class="edge">
<title>AddRequestComponent&#45;&gt;AppModule</title>
<path fill="none" stroke="black" d="M4025,-84.84C4025,-106.46 4025,-139.8 4025,-139.8 4025,-139.8 2497.83,-139.8 2497.83,-139.8"/>
<polygon fill="black" stroke="black" points="2497.83,-136.3 2487.83,-139.8 2497.83,-143.3 2497.83,-136.3"/>
</g>
<!-- AddRequestRaportComponent -->
<g id="node5" class="node">
<title>AddRequestRaportComponent</title>
<polygon fill="#ffffb3" stroke="black" points="3931.14,-84.8 3742.86,-84.8 3742.86,-48.8 3931.14,-48.8 3931.14,-84.8"/>
<text text-anchor="middle" x="3837" y="-62.6" font-family="Times,serif" font-size="14.00">AddRequestRaportComponent</text>
</g>
<!-- AddRequestRaportComponent&#45;&gt;AppModule -->
<g id="edge5" class="edge">
<title>AddRequestRaportComponent&#45;&gt;AppModule</title>
<path fill="none" stroke="black" d="M3837,-85.08C3837,-106.12 3837,-137.8 3837,-137.8 3837,-137.8 2498.01,-137.8 2498.01,-137.8"/>
<polygon fill="black" stroke="black" points="2498.01,-134.3 2488.01,-137.8 2498.01,-141.3 2498.01,-134.3"/>
</g>
<!-- AppComponent -->
<g id="node6" class="node">
<title>AppComponent</title>
<polygon fill="#ffffb3" stroke="black" points="3724.94,-84.8 3619.06,-84.8 3619.06,-48.8 3724.94,-48.8 3724.94,-84.8"/>
<text text-anchor="middle" x="3672" y="-62.6" font-family="Times,serif" font-size="14.00">AppComponent</text>
</g>
<!-- AppComponent&#45;&gt;AppModule -->
<g id="edge6" class="edge">
<title>AppComponent&#45;&gt;AppModule</title>
<path fill="none" stroke="black" d="M3672,-85.02C3672,-105.17 3672,-134.8 3672,-134.8 3672,-134.8 2497.85,-134.8 2497.85,-134.8"/>
<polygon fill="black" stroke="black" points="2497.85,-131.3 2487.85,-134.8 2497.85,-138.3 2497.85,-131.3"/>
</g>
<!-- ButtonComponent -->
<g id="node7" class="node">
<title>ButtonComponent</title>
<polygon fill="#ffffb3" stroke="black" points="3601.95,-84.8 3482.05,-84.8 3482.05,-48.8 3601.95,-48.8 3601.95,-84.8"/>
<text text-anchor="middle" x="3542" y="-62.6" font-family="Times,serif" font-size="14.00">ButtonComponent</text>
</g>
<!-- ButtonComponent&#45;&gt;AppModule -->
<g id="edge7" class="edge">
<title>ButtonComponent&#45;&gt;AppModule</title>
<path fill="none" stroke="black" d="M3542,-84.91C3542,-104.14 3542,-131.8 3542,-131.8 3542,-131.8 2497.96,-131.8 2497.96,-131.8"/>
<polygon fill="black" stroke="black" points="2497.96,-128.3 2487.96,-131.8 2497.96,-135.3 2497.96,-128.3"/>
</g>
<!-- ComponentsComponent -->
<g id="node8" class="node">
<title>ComponentsComponent</title>
<polygon fill="#ffffb3" stroke="black" points="3464.11,-84.8 3311.89,-84.8 3311.89,-48.8 3464.11,-48.8 3464.11,-84.8"/>
<text text-anchor="middle" x="3388" y="-62.6" font-family="Times,serif" font-size="14.00">ComponentsComponent</text>
</g>
<!-- ComponentsComponent&#45;&gt;AppModule -->
<g id="edge8" class="edge">
<title>ComponentsComponent&#45;&gt;AppModule</title>
<path fill="none" stroke="black" d="M3388,-85.02C3388,-103.63 3388,-129.8 3388,-129.8 3388,-129.8 2497.69,-129.8 2497.69,-129.8"/>
<polygon fill="black" stroke="black" points="2497.69,-126.3 2487.69,-129.8 2497.69,-133.3 2497.69,-126.3"/>
</g>
<!-- DeleteMaterialComponent -->
<g id="node9" class="node">
<title>DeleteMaterialComponent</title>
<polygon fill="#ffffb3" stroke="black" points="3293.79,-84.8 3128.21,-84.8 3128.21,-48.8 3293.79,-48.8 3293.79,-84.8"/>
<text text-anchor="middle" x="3211" y="-62.6" font-family="Times,serif" font-size="14.00">DeleteMaterialComponent</text>
</g>
<!-- DeleteMaterialComponent&#45;&gt;AppModule -->
<g id="edge9" class="edge">
<title>DeleteMaterialComponent&#45;&gt;AppModule</title>
<path fill="none" stroke="black" d="M3211,-84.8C3211,-102.48 3211,-126.8 3211,-126.8 3211,-126.8 2497.67,-126.8 2497.67,-126.8"/>
<polygon fill="black" stroke="black" points="2497.67,-123.3 2487.67,-126.8 2497.67,-130.3 2497.67,-123.3"/>
</g>
<!-- DeleteRequestComponent -->
<g id="node10" class="node">
<title>DeleteRequestComponent</title>
<polygon fill="#ffffb3" stroke="black" points="3110.47,-84.8 2947.53,-84.8 2947.53,-48.8 3110.47,-48.8 3110.47,-84.8"/>
<text text-anchor="middle" x="3029" y="-62.6" font-family="Times,serif" font-size="14.00">DeleteRequestComponent</text>
</g>
<!-- DeleteRequestComponent&#45;&gt;AppModule -->
<g id="edge10" class="edge">
<title>DeleteRequestComponent&#45;&gt;AppModule</title>
<path fill="none" stroke="black" d="M3029,-84.83C3029,-101.86 3029,-124.8 3029,-124.8 3029,-124.8 2497.93,-124.8 2497.93,-124.8"/>
<polygon fill="black" stroke="black" points="2497.93,-121.3 2487.93,-124.8 2497.93,-128.3 2497.93,-121.3"/>
</g>
<!-- HeaderComponent -->
<g id="node11" class="node">
<title>HeaderComponent</title>
<polygon fill="#ffffb3" stroke="black" points="2929.74,-84.8 2808.26,-84.8 2808.26,-48.8 2929.74,-48.8 2929.74,-84.8"/>
<text text-anchor="middle" x="2869" y="-62.6" font-family="Times,serif" font-size="14.00">HeaderComponent</text>
</g>
<!-- HeaderComponent&#45;&gt;AppModule -->
<g id="edge11" class="edge">
<title>HeaderComponent&#45;&gt;AppModule</title>
<path fill="none" stroke="black" d="M2869,-84.81C2869,-100.85 2869,-121.8 2869,-121.8 2869,-121.8 2497.72,-121.8 2497.72,-121.8"/>
<polygon fill="black" stroke="black" points="2497.72,-118.3 2487.72,-121.8 2497.72,-125.3 2497.72,-118.3"/>
</g>
<!-- HomeComponent -->
<g id="node12" class="node">
<title>HomeComponent</title>
<polygon fill="#ffffb3" stroke="black" points="2789.55,-84.8 2674.45,-84.8 2674.45,-48.8 2789.55,-48.8 2789.55,-84.8"/>
<text text-anchor="middle" x="2732" y="-62.6" font-family="Times,serif" font-size="14.00">HomeComponent</text>
</g>
<!-- HomeComponent&#45;&gt;AppModule -->
<g id="edge12" class="edge">
<title>HomeComponent&#45;&gt;AppModule</title>
<path fill="none" stroke="black" d="M2732,-85.04C2732,-100.37 2732,-119.8 2732,-119.8 2732,-119.8 2497.89,-119.8 2497.89,-119.8"/>
<polygon fill="black" stroke="black" points="2497.89,-116.3 2487.89,-119.8 2497.89,-123.3 2497.89,-116.3"/>
</g>
<!-- LoginComponent -->
<g id="node13" class="node">
<title>LoginComponent</title>
<polygon fill="#ffffb3" stroke="black" points="2656.28,-84.8 2541.72,-84.8 2541.72,-48.8 2656.28,-48.8 2656.28,-84.8"/>
<text text-anchor="middle" x="2599" y="-62.6" font-family="Times,serif" font-size="14.00">LoginComponent</text>
</g>
<!-- LoginComponent&#45;&gt;AppModule -->
<g id="edge13" class="edge">
<title>LoginComponent&#45;&gt;AppModule</title>
<path fill="none" stroke="black" d="M2599,-84.85C2599,-99.17 2599,-116.8 2599,-116.8 2599,-116.8 2497.81,-116.8 2497.81,-116.8"/>
<polygon fill="black" stroke="black" points="2497.81,-113.3 2487.81,-116.8 2497.81,-120.3 2497.81,-113.3"/>
</g>
<!-- MaterialItemComponent -->
<g id="node14" class="node">
<title>MaterialItemComponent</title>
<polygon fill="#ffffb3" stroke="black" points="2523.41,-84.8 2368.59,-84.8 2368.59,-48.8 2523.41,-48.8 2523.41,-84.8"/>
<text text-anchor="middle" x="2446" y="-62.6" font-family="Times,serif" font-size="14.00">MaterialItemComponent</text>
</g>
<!-- MaterialItemComponent&#45;&gt;AppModule -->
<g id="edge14" class="edge">
<title>MaterialItemComponent&#45;&gt;AppModule</title>
<path fill="none" stroke="black" d="M2446,-84.91C2446,-84.91 2446,-103.79 2446,-103.79"/>
<polygon fill="black" stroke="black" points="2442.5,-103.79 2446,-113.79 2449.5,-103.79 2442.5,-103.79"/>
</g>
<!-- MaterialSearchPipe -->
<g id="node15" class="node">
<title>MaterialSearchPipe</title>
<polygon fill="#ffffb3" stroke="black" points="2351.4,-84.8 2224.6,-84.8 2224.6,-48.8 2351.4,-48.8 2351.4,-84.8"/>
<text text-anchor="middle" x="2288" y="-62.6" font-family="Times,serif" font-size="14.00">MaterialSearchPipe</text>
</g>
<!-- MaterialSearchPipe&#45;&gt;AppModule -->
<g id="edge15" class="edge">
<title>MaterialSearchPipe&#45;&gt;AppModule</title>
<path fill="none" stroke="black" d="M2288,-84.85C2288,-99.17 2288,-116.8 2288,-116.8 2288,-116.8 2394.07,-116.8 2394.07,-116.8"/>
<polygon fill="black" stroke="black" points="2394.07,-120.3 2404.07,-116.8 2394.07,-113.3 2394.07,-120.3"/>
</g>
<!-- MaterialsComponent -->
<g id="node16" class="node">
<title>MaterialsComponent</title>
<polygon fill="#ffffb3" stroke="black" points="2207.2,-84.8 2072.8,-84.8 2072.8,-48.8 2207.2,-48.8 2207.2,-84.8"/>
<text text-anchor="middle" x="2140" y="-62.6" font-family="Times,serif" font-size="14.00">MaterialsComponent</text>
</g>
<!-- MaterialsComponent&#45;&gt;AppModule -->
<g id="edge16" class="edge">
<title>MaterialsComponent&#45;&gt;AppModule</title>
<path fill="none" stroke="black" d="M2140,-85.04C2140,-100.37 2140,-119.8 2140,-119.8 2140,-119.8 2394.09,-119.8 2394.09,-119.8"/>
<polygon fill="black" stroke="black" points="2394.09,-123.3 2404.09,-119.8 2394.09,-116.3 2394.09,-123.3"/>
</g>
<!-- ProjectDetailComponent -->
<g id="node17" class="node">
<title>ProjectDetailComponent</title>
<polygon fill="#ffffb3" stroke="black" points="2054.69,-84.8 1899.31,-84.8 1899.31,-48.8 2054.69,-48.8 2054.69,-84.8"/>
<text text-anchor="middle" x="1977" y="-62.6" font-family="Times,serif" font-size="14.00">ProjectDetailComponent</text>
</g>
<!-- ProjectDetailComponent&#45;&gt;AppModule -->
<g id="edge17" class="edge">
<title>ProjectDetailComponent&#45;&gt;AppModule</title>
<path fill="none" stroke="black" d="M1977,-84.81C1977,-100.85 1977,-121.8 1977,-121.8 1977,-121.8 2393.97,-121.8 2393.97,-121.8"/>
<polygon fill="black" stroke="black" points="2393.97,-125.3 2403.97,-121.8 2393.97,-118.3 2393.97,-125.3"/>
</g>
<!-- ProjectSearchPipe -->
<g id="node18" class="node">
<title>ProjectSearchPipe</title>
<polygon fill="#ffffb3" stroke="black" points="1881.13,-84.8 1762.87,-84.8 1762.87,-48.8 1881.13,-48.8 1881.13,-84.8"/>
<text text-anchor="middle" x="1822" y="-62.6" font-family="Times,serif" font-size="14.00">ProjectSearchPipe</text>
</g>
<!-- ProjectSearchPipe&#45;&gt;AppModule -->
<g id="edge18" class="edge">
<title>ProjectSearchPipe&#45;&gt;AppModule</title>
<path fill="none" stroke="black" d="M1822,-84.83C1822,-101.86 1822,-124.8 1822,-124.8 1822,-124.8 2394.09,-124.8 2394.09,-124.8"/>
<polygon fill="black" stroke="black" points="2394.09,-128.3 2404.09,-124.8 2394.09,-121.3 2394.09,-128.3"/>
</g>
<!-- ProjectsComponent -->
<g id="node19" class="node">
<title>ProjectsComponent</title>
<polygon fill="#ffffb3" stroke="black" points="1744.43,-84.8 1617.57,-84.8 1617.57,-48.8 1744.43,-48.8 1744.43,-84.8"/>
<text text-anchor="middle" x="1681" y="-62.6" font-family="Times,serif" font-size="14.00">ProjectsComponent</text>
</g>
<!-- ProjectsComponent&#45;&gt;AppModule -->
<g id="edge19" class="edge">
<title>ProjectsComponent&#45;&gt;AppModule</title>
<path fill="none" stroke="black" d="M1681,-84.8C1681,-102.48 1681,-126.8 1681,-126.8 1681,-126.8 2394.33,-126.8 2394.33,-126.8"/>
<polygon fill="black" stroke="black" points="2394.33,-130.3 2404.33,-126.8 2394.33,-123.3 2394.33,-130.3"/>
</g>
<!-- RaportBillingComponent -->
<g id="node20" class="node">
<title>RaportBillingComponent</title>
<polygon fill="#ffffb3" stroke="black" points="1600.33,-84.8 1441.67,-84.8 1441.67,-48.8 1600.33,-48.8 1600.33,-84.8"/>
<text text-anchor="middle" x="1521" y="-62.6" font-family="Times,serif" font-size="14.00">RaportBillingComponent</text>
</g>
<!-- RaportBillingComponent&#45;&gt;AppModule -->
<g id="edge20" class="edge">
<title>RaportBillingComponent&#45;&gt;AppModule</title>
<path fill="none" stroke="black" d="M1521,-85.02C1521,-103.63 1521,-129.8 1521,-129.8 1521,-129.8 2394.15,-129.8 2394.15,-129.8"/>
<polygon fill="black" stroke="black" points="2394.15,-133.3 2404.15,-129.8 2394.15,-126.3 2394.15,-133.3"/>
</g>
<!-- RaportDetailComponent -->
<g id="node21" class="node">
<title>RaportDetailComponent</title>
<polygon fill="#ffffb3" stroke="black" points="1423.64,-84.8 1270.36,-84.8 1270.36,-48.8 1423.64,-48.8 1423.64,-84.8"/>
<text text-anchor="middle" x="1347" y="-62.6" font-family="Times,serif" font-size="14.00">RaportDetailComponent</text>
</g>
<!-- RaportDetailComponent&#45;&gt;AppModule -->
<g id="edge21" class="edge">
<title>RaportDetailComponent&#45;&gt;AppModule</title>
<path fill="none" stroke="black" d="M1347,-84.91C1347,-104.14 1347,-131.8 1347,-131.8 1347,-131.8 2394.26,-131.8 2394.26,-131.8"/>
<polygon fill="black" stroke="black" points="2394.26,-135.3 2404.26,-131.8 2394.26,-128.3 2394.26,-135.3"/>
</g>
<!-- RaportsComponent -->
<g id="node22" class="node">
<title>RaportsComponent</title>
<polygon fill="#ffffb3" stroke="black" points="1252.38,-84.8 1127.62,-84.8 1127.62,-48.8 1252.38,-48.8 1252.38,-84.8"/>
<text text-anchor="middle" x="1190" y="-62.6" font-family="Times,serif" font-size="14.00">RaportsComponent</text>
</g>
<!-- RaportsComponent&#45;&gt;AppModule -->
<g id="edge22" class="edge">
<title>RaportsComponent&#45;&gt;AppModule</title>
<path fill="none" stroke="black" d="M1190,-85.02C1190,-105.17 1190,-134.8 1190,-134.8 1190,-134.8 2394.21,-134.8 2394.21,-134.8"/>
<polygon fill="black" stroke="black" points="2394.21,-138.3 2404.21,-134.8 2394.21,-131.3 2394.21,-138.3"/>
</g>
<!-- RequestItemComponent -->
<g id="node23" class="node">
<title>RequestItemComponent</title>
<polygon fill="#ffffb3" stroke="black" points="1110.09,-84.8 957.91,-84.8 957.91,-48.8 1110.09,-48.8 1110.09,-84.8"/>
<text text-anchor="middle" x="1034" y="-62.6" font-family="Times,serif" font-size="14.00">RequestItemComponent</text>
</g>
<!-- RequestItemComponent&#45;&gt;AppModule -->
<g id="edge23" class="edge">
<title>RequestItemComponent&#45;&gt;AppModule</title>
<path fill="none" stroke="black" d="M1034,-85.08C1034,-106.12 1034,-137.8 1034,-137.8 1034,-137.8 2394.12,-137.8 2394.12,-137.8"/>
<polygon fill="black" stroke="black" points="2394.12,-141.3 2404.12,-137.8 2394.12,-134.3 2394.12,-141.3"/>
</g>
<!-- RequestsComponent -->
<g id="node24" class="node">
<title>RequestsComponent</title>
<polygon fill="#ffffb3" stroke="black" points="939.88,-84.8 808.12,-84.8 808.12,-48.8 939.88,-48.8 939.88,-84.8"/>
<text text-anchor="middle" x="874" y="-62.6" font-family="Times,serif" font-size="14.00">RequestsComponent</text>
</g>
<!-- RequestsComponent&#45;&gt;AppModule -->
<g id="edge24" class="edge">
<title>RequestsComponent&#45;&gt;AppModule</title>
<path fill="none" stroke="black" d="M874,-84.84C874,-106.46 874,-139.8 874,-139.8 874,-139.8 2393.95,-139.8 2393.95,-139.8"/>
<polygon fill="black" stroke="black" points="2393.95,-143.3 2403.95,-139.8 2393.95,-136.3 2393.95,-143.3"/>
</g>
<!-- AppComponent  -->
<g id="node29" class="node">
<title>AppComponent </title>
<polygon fill="#80b1d3" stroke="black" points="2500.44,-214.8 2391.56,-214.8 2391.56,-178.8 2500.44,-178.8 2500.44,-214.8"/>
<text text-anchor="middle" x="2446" y="-192.6" font-family="Times,serif" font-size="14.00">AppComponent </text>
</g>
<!-- AppModule&#45;&gt;AppComponent  -->
<g id="edge28" class="edge">
<title>AppModule&#45;&gt;AppComponent </title>
<path fill="none" stroke="black" stroke-dasharray="1,5" d="M2446,-149.91C2446,-149.91 2446,-168.79 2446,-168.79"/>
<polygon fill="black" stroke="black" points="2442.5,-168.79 2446,-178.79 2449.5,-168.79 2442.5,-168.79"/>
</g>
<!-- provideAuth(() =&gt; getAuth()) -->
<g id="node26" class="node">
<title>provideAuth(() =&gt; getAuth())</title>
<polygon fill="#8dd3c7" stroke="black" points="784.12,-84.8 781.12,-88.8 760.12,-88.8 757.12,-84.8 601.88,-84.8 601.88,-48.8 784.12,-48.8 784.12,-84.8"/>
<text text-anchor="middle" x="693" y="-62.6" font-family="Times,serif" font-size="14.00">provideAuth(() =&gt; getAuth())</text>
</g>
<!-- provideAuth(() =&gt; getAuth())&#45;&gt;AppModule -->
<g id="edge25" class="edge">
<title>provideAuth(() =&gt; getAuth())&#45;&gt;AppModule</title>
<path fill="none" stroke="black" d="M693,-84.81C693,-107.29 693,-142.8 693,-142.8 693,-142.8 2393.97,-142.8 2393.97,-142.8"/>
<polygon fill="black" stroke="black" points="2393.97,-146.3 2403.97,-142.8 2393.97,-139.3 2393.97,-146.3"/>
</g>
<!-- provideFirebaseApp(() =&gt; initializeApp(environment -->
<g id="node27" class="node">
<title>provideFirebaseApp(() =&gt; initializeApp(environment</title>
<polygon fill="#8dd3c7" stroke="black" points="583.58,-84.8 580.58,-88.8 559.58,-88.8 556.58,-84.8 268.42,-84.8 268.42,-48.8 583.58,-48.8 583.58,-84.8"/>
<text text-anchor="middle" x="426" y="-62.6" font-family="Times,serif" font-size="14.00">provideFirebaseApp(() =&gt; initializeApp(environment</text>
</g>
<!-- provideFirebaseApp(() =&gt; initializeApp(environment&#45;&gt;AppModule -->
<g id="edge26" class="edge">
<title>provideFirebaseApp(() =&gt; initializeApp(environment&#45;&gt;AppModule</title>
<path fill="none" stroke="black" d="M426,-84.89C426,-107.93 426,-144.8 426,-144.8 426,-144.8 2394.27,-144.8 2394.27,-144.8"/>
<polygon fill="black" stroke="black" points="2394.27,-148.3 2404.27,-144.8 2394.27,-141.3 2394.27,-148.3"/>
</g>
<!-- provideFirestore(() =&gt; getFirestore()) -->
<g id="node28" class="node">
<title>provideFirestore(() =&gt; getFirestore())</title>
<polygon fill="#8dd3c7" stroke="black" points="250.14,-84.8 247.14,-88.8 226.14,-88.8 223.14,-84.8 23.86,-84.8 23.86,-48.8 250.14,-48.8 250.14,-84.8"/>
<text text-anchor="middle" x="137" y="-62.6" font-family="Times,serif" font-size="14.00">provideFirestore(() =&gt; getFirestore())</text>
</g>
<!-- provideFirestore(() =&gt; getFirestore())&#45;&gt;AppModule -->
<g id="edge27" class="edge">
<title>provideFirestore(() =&gt; getFirestore())&#45;&gt;AppModule</title>
<path fill="none" stroke="black" d="M137,-85.18C137,-109.08 137,-147.8 137,-147.8 137,-147.8 2393.95,-147.8 2393.95,-147.8"/>
<polygon fill="black" stroke="black" points="2393.95,-151.3 2403.95,-147.8 2393.95,-144.3 2393.95,-151.3"/>
</g>
</g>
</svg>
